<svg width="166" height="32" viewBox="0 0 166 32" fill="none" xmlns="http://www.w3.org/2000/svg">
<g clip-path="url(#clip0_37_19084)">
<path d="M55.0124 10.75C55.741 10.7428 56.4601 10.9153 57.1057 11.252C57.7514 11.5887 58.3036 12.0792 58.7133 12.68L61.0201 11C60.3253 10.0304 59.4066 9.2417 58.3418 8.70042C57.277 8.15915 56.0973 7.88118 54.9021 7.88997C52.8406 7.88997 50.8635 8.70649 49.4058 10.1599C47.9481 11.6133 47.1292 13.5845 47.1292 15.64C47.1292 17.6954 47.9481 19.6666 49.4058 21.12C50.8635 22.5735 52.8406 23.39 54.9021 23.39C56.0973 23.3988 57.277 23.1208 58.3418 22.5795C59.4066 22.0382 60.3253 21.2495 61.0201 20.28L58.7133 18.61C58.3011 19.2129 57.7455 19.7047 57.0963 20.0415C56.447 20.3783 55.7242 20.5495 54.9924 20.54C54.3585 20.5324 53.7326 20.3985 53.1514 20.1462C52.5703 19.8938 52.0456 19.5282 51.6082 19.0707C51.1709 18.6132 50.8297 18.0731 50.6048 17.4822C50.3799 16.8913 50.2757 16.2616 50.2985 15.63C50.2798 14.9992 50.3876 14.371 50.6156 13.7823C50.8436 13.1936 51.1872 12.6562 51.6263 12.2017C52.0654 11.7472 52.591 11.3846 53.1725 11.1353C53.754 10.886 54.3795 10.755 55.0124 10.75Z" fill="#011465"/>
<path d="M67.74 12.73C66.6861 12.7536 65.6627 13.0867 64.798 13.6877C63.9332 14.2886 63.2655 15.1306 62.8785 16.1082C62.4915 17.0858 62.4025 18.1555 62.6225 19.1834C62.8426 20.2112 63.3619 21.1514 64.1155 21.8863C64.8691 22.6211 65.8234 23.1179 66.8589 23.3144C67.8945 23.511 68.9651 23.3984 69.9368 22.991C70.9084 22.5835 71.7379 21.8992 72.3212 21.0239C72.9046 20.1485 73.2159 19.121 73.2162 18.07C73.2205 17.3573 73.0809 16.6511 72.8057 15.9934C72.5305 15.3357 72.1253 14.7399 71.6143 14.2416C71.1033 13.7433 70.4969 13.3527 69.8313 13.093C69.1657 12.8333 68.4545 12.7098 67.74 12.73ZM67.74 20.73C67.3963 20.7262 67.0568 20.6539 66.7416 20.5174C66.4263 20.3808 66.1416 20.1828 65.9043 19.935C65.6669 19.6871 65.4817 19.3945 65.3594 19.0742C65.2372 18.7539 65.1804 18.4125 65.1925 18.07C65.1705 17.7197 65.2208 17.3686 65.3401 17.0384C65.4595 16.7082 65.6454 16.4058 65.8864 16.15C66.1275 15.8942 66.4185 15.6904 66.7416 15.551C67.0647 15.4116 67.413 15.3397 67.7651 15.3397C68.1171 15.3397 68.4654 15.4116 68.7885 15.551C69.1116 15.6904 69.4026 15.8942 69.6437 16.15C69.8847 16.4058 70.0706 16.7082 70.19 17.0384C70.3093 17.3686 70.3596 17.7197 70.3376 18.07C70.3527 18.4178 70.2964 18.7651 70.1722 19.0905C70.048 19.416 69.8586 19.7127 69.6154 19.9626C69.3723 20.2125 69.0805 20.4104 68.7581 20.544C68.4356 20.6777 68.0892 20.7444 67.74 20.74V20.73Z" fill="#011465"/>
<path d="M81.3602 12.73C80.717 12.7313 80.0884 12.9217 79.5532 13.2775C79.018 13.6332 78.5999 14.1385 78.3513 14.73V13H75.4528V23.13H78.3112V17.81C78.277 17.4972 78.3117 17.1808 78.413 16.8829C78.5142 16.5849 78.6795 16.3126 78.8973 16.0849C79.1151 15.8573 79.3801 15.6799 79.6739 15.565C79.9676 15.4501 80.283 15.4007 80.5979 15.42C81.6009 15.42 82.5337 16.14 82.5337 17.72V23.13H85.3921V17.57C85.4122 14.53 84.018 12.73 81.3602 12.73Z" fill="#011465"/>
<path d="M91.8411 9.28998H88.9827V12.99H87.1372V15.2H88.9827V23.14H91.8411V15.2H93.9975V12.99H91.8411V9.28998Z" fill="#011465"/>
<path d="M100.406 12.73C99.6941 12.7052 98.9841 12.826 98.3203 13.0849C97.6565 13.3439 97.0529 13.7355 96.5465 14.2357C96.0401 14.7359 95.6418 15.3341 95.3759 15.9935C95.11 16.6529 94.9822 17.3595 95.0005 18.07C94.9775 18.783 95.1028 19.4929 95.3685 20.1553C95.6341 20.8176 96.0343 21.4179 96.544 21.9186C97.0536 22.4192 97.6616 22.8092 98.3298 23.0642C98.998 23.3192 99.7118 23.4335 100.426 23.4C101.281 23.425 102.13 23.2582 102.911 22.912C103.693 22.5659 104.386 22.0491 104.94 21.4L103.305 19.68C102.966 20.0561 102.551 20.3573 102.089 20.5639C101.626 20.7706 101.124 20.8783 100.617 20.88C100.026 20.9304 99.4367 20.7687 98.9549 20.424C98.473 20.0793 98.1306 19.5742 97.9893 19H105.632C105.675 18.6415 105.698 18.281 105.702 17.92C105.719 17.2261 105.593 16.5361 105.332 15.8928C105.071 15.2494 104.68 14.6664 104.183 14.1799C103.687 13.6933 103.095 13.3136 102.446 13.0642C101.796 12.8148 101.102 12.701 100.406 12.73ZM97.9893 17.14C98.0761 16.5579 98.3787 16.0295 98.8374 15.6591C99.2961 15.2888 99.8775 15.1036 100.467 15.14C100.754 15.114 101.043 15.1454 101.318 15.2323C101.592 15.3193 101.847 15.46 102.067 15.6462C102.286 15.8325 102.466 16.0605 102.596 16.317C102.726 16.5735 102.803 16.8533 102.824 17.14H97.9893Z" fill="#011465"/>
<path d="M113.806 12.73C113.163 12.7326 112.535 12.9236 112 13.2791C111.465 13.6347 111.047 14.1393 110.797 14.73V13H107.939V23.13H110.797V17.81C110.763 17.4972 110.798 17.1808 110.899 16.8829C111 16.5849 111.165 16.3126 111.383 16.0849C111.601 15.8573 111.866 15.6799 112.16 15.565C112.453 15.4501 112.769 15.4007 113.084 15.42C114.087 15.42 115.03 16.14 115.03 17.72V23.13H117.878V17.57C117.858 14.53 116.464 12.73 113.806 12.73Z" fill="#011465"/>
<path d="M124.287 9.28998H121.438V12.99H119.583V15.2H121.438V23.14H124.287V15.2H126.453V12.99H124.287V9.28998Z" fill="#011465"/>
<path d="M131.137 15.1599V12.9999H128.299V23.1299H131.157V19.6599C131.157 16.7699 132.16 15.3999 133.614 15.3999C134.127 15.3935 134.631 15.5211 135.079 15.7699L135.731 13.0499C135.225 12.8197 134.672 12.7101 134.116 12.7299C133.418 12.7445 132.746 12.9917 132.206 13.4323C131.666 13.8728 131.289 14.4811 131.137 15.1599Z" fill="#011465"/>
<path d="M144.607 14.3299C144.229 13.8152 143.731 13.4003 143.156 13.1214C142.581 12.8425 141.946 12.7082 141.307 12.7299C138.388 12.7299 136.342 14.9199 136.342 18.0699C136.342 21.2199 138.439 23.3999 141.247 23.3999C141.906 23.4103 142.557 23.2588 143.143 22.9588C143.729 22.6589 144.231 22.2196 144.607 21.6799V23.1299H147.435V12.9999H144.587L144.607 14.3299ZM141.879 20.7399C141.531 20.736 141.187 20.6639 140.868 20.5276C140.548 20.3913 140.258 20.1935 140.015 19.9455C139.772 19.6976 139.58 19.4044 139.451 19.0825C139.322 18.7607 139.257 18.4166 139.261 18.0699C139.25 17.7222 139.309 17.3758 139.435 17.0512C139.56 16.7266 139.75 16.4302 139.992 16.1796C140.234 15.929 140.524 15.7291 140.844 15.5918C141.165 15.4545 141.51 15.3824 141.859 15.3799C142.572 15.3799 143.255 15.6623 143.759 16.1649C144.263 16.6675 144.547 17.3492 144.547 18.0599C144.547 18.7707 144.263 19.4524 143.759 19.955C143.255 20.4576 142.572 20.7399 141.859 20.7399H141.879Z" fill="#011465"/>
<path d="M151.768 8C151.55 7.98266 151.331 8.01051 151.124 8.0818C150.917 8.15309 150.728 8.26626 150.567 8.41421C150.406 8.56215 150.278 8.74166 150.19 8.94144C150.103 9.14121 150.057 9.35692 150.057 9.575C150.057 9.79307 150.103 10.0088 150.19 10.2086C150.278 10.4083 150.406 10.5878 150.567 10.7358C150.728 10.8837 150.917 10.9969 151.124 11.0682C151.331 11.1395 151.55 11.1673 151.768 11.15C151.986 11.1673 152.205 11.1395 152.412 11.0682C152.619 10.9969 152.808 10.8837 152.969 10.7358C153.13 10.5878 153.258 10.4083 153.346 10.2086C153.433 10.0088 153.479 9.79307 153.479 9.575C153.479 9.35692 153.433 9.14121 153.346 8.94144C153.258 8.74166 153.13 8.56215 152.969 8.41421C152.808 8.26626 152.619 8.15309 152.412 8.0818C152.205 8.01051 151.986 7.98266 151.768 8Z" fill="#011465"/>
<path d="M153.192 12.9899H150.334V23.1399H153.192V12.9899Z" fill="#011465"/>
<path d="M161.968 12.73C161.325 12.7326 160.697 12.9236 160.162 13.2791C159.627 13.6347 159.209 14.1393 158.959 14.73V13H156.111V23.13H158.959V17.81C158.925 17.4972 158.96 17.1808 159.061 16.8829C159.162 16.5849 159.328 16.3126 159.545 16.0849C159.763 15.8573 160.028 15.6799 160.322 15.565C160.616 15.4501 160.931 15.4007 161.246 15.42C162.249 15.42 163.192 16.14 163.192 17.72V23.13H166.04V17.57C166.03 14.53 164.626 12.73 161.968 12.73Z" fill="#011465"/>
<path d="M31.4829 8.14073C30.994 6.05706 29.8812 4.17089 28.292 2.73254C26.7029 1.2942 24.7126 0.371691 22.5854 0.087449C20.4581 -0.196793 18.2945 0.170671 16.3816 1.14107C14.4687 2.11148 12.897 3.63893 11.8751 5.52073C11.3211 5.43274 10.761 5.38926 10.2001 5.39073C4.5735 5.39073 0 9.62073 0 14.8207C0 19.6007 3.87143 23.6207 9.02664 24.1807C9.38176 24.2192 9.73765 24.1154 10.016 23.8922C10.2944 23.6691 10.4725 23.3448 10.511 22.9907C10.5496 22.6367 10.4455 22.2818 10.2217 22.0043C9.99786 21.7267 9.67262 21.5492 9.3175 21.5107C7.58369 21.4059 5.9504 20.664 4.73332 19.4283C3.51625 18.1927 2.80179 16.551 2.72805 14.8207C2.72805 11.1107 6.098 8.08073 10.2302 8.08073C10.938 8.08461 11.6425 8.1787 12.3264 8.36073C12.6443 8.44512 12.9823 8.4103 13.2762 8.26286C13.5701 8.11541 13.7996 7.86559 13.9211 7.56073C14.5816 5.95687 15.7561 4.61616 17.2613 3.74786C18.7665 2.87957 20.5176 2.53254 22.2414 2.76093C23.9652 2.98933 25.5646 3.78031 26.7901 5.01041C28.0156 6.24052 28.7982 7.84053 29.0156 9.56073C29.0585 9.91294 29.2377 10.2345 29.515 10.4568C29.7923 10.6791 30.1458 10.7846 30.5 10.7507C34.0104 10.7507 36.8588 13.1807 36.8588 16.1407C36.8588 19.1007 33.9803 21.5307 30.4399 21.5307C30.2591 21.5293 30.0799 21.5642 29.913 21.6335C29.7461 21.7027 29.5949 21.8048 29.4685 21.9336C29.3421 22.0625 29.2431 22.2154 29.1773 22.3833C29.1116 22.5512 29.0805 22.7306 29.0859 22.9107C29.0911 23.2679 29.2372 23.6088 29.4924 23.8595C29.7476 24.1102 30.0916 24.2508 30.4499 24.2507C35.4647 24.2507 39.5668 20.6307 39.5668 16.1707C39.5267 12.0007 36.0063 8.61073 31.4829 8.14073Z" fill="#0013FF"/>
<path d="M12.8379 17.85C12.5719 17.85 12.3168 17.9553 12.1287 18.1429C11.9406 18.3304 11.835 18.5848 11.835 18.85V22.9C11.835 23.1652 11.9406 23.4195 12.1287 23.6071C12.3168 23.7946 12.5719 23.9 12.8379 23.9C13.1039 23.9 13.359 23.7946 13.5471 23.6071C13.7352 23.4195 13.8409 23.1652 13.8409 22.9V18.86C13.8422 18.7278 13.8172 18.5967 13.7674 18.4742C13.7176 18.3517 13.644 18.2403 13.5507 18.1464C13.4574 18.0525 13.3464 17.9779 13.2241 17.927C13.1017 17.8762 12.9705 17.85 12.8379 17.85Z" fill="#0013FF"/>
<path d="M12.8379 25.2599C12.6396 25.2599 12.4456 25.3186 12.2807 25.4285C12.1158 25.5384 11.9872 25.6945 11.9113 25.8773C11.8354 26.06 11.8155 26.2611 11.8542 26.455C11.8929 26.649 11.9885 26.8272 12.1287 26.9671C12.269 27.1069 12.4477 27.2021 12.6423 27.2407C12.8368 27.2793 13.0385 27.2595 13.2217 27.1838C13.405 27.1081 13.5616 26.98 13.6719 26.8155C13.7821 26.6511 13.8409 26.4577 13.8409 26.2599C13.8409 25.9947 13.7352 25.7404 13.5471 25.5528C13.359 25.3653 13.1039 25.2599 12.8379 25.2599Z" fill="#0013FF"/>
<path d="M21.8445 25.94C21.5785 25.94 21.3234 26.0453 21.1353 26.2329C20.9472 26.4204 20.8416 26.6748 20.8416 26.94V30.94C20.8416 31.2052 20.9472 31.4595 21.1353 31.6471C21.3234 31.8346 21.5785 31.94 21.8445 31.94C22.1105 31.94 22.3656 31.8346 22.5537 31.6471C22.7418 31.4595 22.8475 31.2052 22.8475 30.94V27C22.8557 26.8637 22.8358 26.7272 22.7891 26.5988C22.7424 26.4705 22.6698 26.3531 22.5759 26.2538C22.4819 26.1544 22.3685 26.0754 22.2428 26.0214C22.117 25.9674 21.9814 25.9397 21.8445 25.94Z" fill="#0013FF"/>
<path d="M21.8445 15.16C21.5785 15.16 21.3234 15.2654 21.1353 15.4529C20.9472 15.6404 20.8416 15.8948 20.8416 16.16V20.16C20.8416 20.4252 20.9472 20.6796 21.1353 20.8671C21.3234 21.0546 21.5785 21.16 21.8445 21.16C22.1105 21.16 22.3656 21.0546 22.5537 20.8671C22.7418 20.6796 22.8475 20.4252 22.8475 20.16V16.16C22.8475 15.8948 22.7418 15.6404 22.5537 15.4529C22.3656 15.2654 22.1105 15.16 21.8445 15.16Z" fill="#0013FF"/>
<path d="M21.8445 22.5699C21.6461 22.5699 21.4522 22.6286 21.2873 22.7385C21.1224 22.8484 20.9938 23.0045 20.9179 23.1873C20.842 23.37 20.8221 23.5711 20.8608 23.765C20.8995 23.959 20.995 24.1372 21.1353 24.2771C21.2756 24.4169 21.4543 24.5121 21.6488 24.5507C21.8434 24.5893 22.0451 24.5695 22.2283 24.4938C22.4116 24.4181 22.5682 24.29 22.6784 24.1255C22.7886 23.9611 22.8475 23.7677 22.8475 23.5699C22.8475 23.3047 22.7418 23.0504 22.5537 22.8628C22.3656 22.6753 22.1105 22.5699 21.8445 22.5699Z" fill="#0013FF"/>
<path d="M17.3412 20.55C17.0752 20.55 16.8201 20.6553 16.632 20.8429C16.4439 21.0304 16.3383 21.2847 16.3383 21.55V25.55C16.3383 25.8152 16.4439 26.0695 16.632 26.2571C16.8201 26.4446 17.0752 26.55 17.3412 26.55C17.6072 26.55 17.8623 26.4446 18.0504 26.2571C18.2385 26.0695 18.3442 25.8152 18.3442 25.55V21.55C18.3442 21.2847 18.2385 21.0304 18.0504 20.8429C17.8623 20.6553 17.6072 20.55 17.3412 20.55Z" fill="#0013FF"/>
<path d="M17.3412 28C17.1429 28 16.9489 28.0586 16.784 28.1685C16.6191 28.2784 16.4905 28.4346 16.4146 28.6173C16.3387 28.8 16.3188 29.0011 16.3575 29.1951C16.3962 29.389 16.4918 29.5672 16.632 29.7071C16.7723 29.8469 16.951 29.9422 17.1455 29.9808C17.3401 30.0193 17.5418 29.9995 17.725 29.9238C17.9083 29.8482 18.0649 29.72 18.1751 29.5555C18.2854 29.3911 18.3442 29.1978 18.3442 29C18.3442 28.7348 18.2385 28.4804 18.0504 28.2929C17.8623 28.1053 17.6072 28 17.3412 28Z" fill="#0013FF"/>
<path d="M17.3412 17.18C17.1429 17.18 16.9489 17.2386 16.784 17.3485C16.6191 17.4584 16.4905 17.6146 16.4146 17.7973C16.3387 17.98 16.3188 18.1811 16.3575 18.3751C16.3962 18.5691 16.4918 18.7472 16.632 18.8871C16.7723 19.027 16.951 19.1222 17.1455 19.1608C17.3401 19.1994 17.5418 19.1796 17.725 19.1039C17.9083 19.0282 18.0649 18.9 18.1751 18.7356C18.2854 18.5711 18.3442 18.3778 18.3442 18.18C18.3442 17.9148 18.2385 17.6604 18.0504 17.4729C17.8623 17.2853 17.6072 17.18 17.3412 17.18Z" fill="#0013FF"/>
<path d="M26.3478 21.89C26.0818 21.89 25.8267 21.9953 25.6386 22.1829C25.4505 22.3704 25.3448 22.6248 25.3448 22.89V26.89C25.3448 27.1552 25.4505 27.4096 25.6386 27.5971C25.8267 27.7846 26.0818 27.89 26.3478 27.89C26.6138 27.89 26.8689 27.7846 27.057 27.5971C27.2451 27.4096 27.3508 27.1552 27.3508 26.89V22.89C27.3508 22.6248 27.2451 22.3704 27.057 22.1829C26.8689 21.9953 26.6138 21.89 26.3478 21.89Z" fill="#0013FF"/>
<path d="M26.3478 18.53C26.1494 18.53 25.9555 18.5886 25.7906 18.6985C25.6257 18.8084 25.4971 18.9646 25.4212 19.1473C25.3453 19.33 25.3254 19.5311 25.3641 19.7251C25.4028 19.919 25.4983 20.0972 25.6386 20.2371C25.7789 20.3769 25.9576 20.4722 26.1521 20.5108C26.3467 20.5493 26.5484 20.5295 26.7316 20.4538C26.9149 20.3782 27.0715 20.25 27.1817 20.0855C27.2919 19.9211 27.3508 19.7277 27.3508 19.53C27.3508 19.2648 27.2451 19.0104 27.057 18.8229C26.8689 18.6353 26.6138 18.53 26.3478 18.53Z" fill="#0013FF"/>
</g>
<defs>
<clipPath id="clip0_37_19084">
<rect width="166" height="32" fill="white"/>
</clipPath>
</defs>
</svg>
